<?xml version="1.0" encoding="UTF-8" standalone="no"?>
<svg xmlns:xlink="http://www.w3.org/1999/xlink" height="37.8px" width="41.85px" xmlns="http://www.w3.org/2000/svg">
  <g transform="matrix(1.0, 0.0, 0.0, 1.0, 0.0, 0.0)">
    <use height="37.8" transform="matrix(1.0, 0.0, 0.0, 1.0, 0.0, 0.0)" width="41.85" xlink:href="#shape0"/>
  </g>
  <defs>
    <g id="shape0" transform="matrix(1.0, 0.0, 0.0, 1.0, 0.0, 0.0)">
      <path d="M41.85 7.15 L36.9 7.15 36.9 5.6 41.85 5.6 41.85 7.15 M38.65 1.55 L39.75 2.75 36.65 5.4 35.7 4.2 38.65 1.55 M33.95 3.4 L35.25 1.25 36.5 1.95 35.4 4.2 33.95 3.4 M34.1 9.45 Q34.85 9.1 35.55 8.7 L36.65 10.8 35.4 11.65 34.1 9.45 M36.8 7.45 L39.85 10.1 38.8 11.3 35.85 8.7 36.8 7.45 M31.8 8.4 L23.3 8.4 Q24.6 11.5 24.35 13.2 L24.35 13.35 24.15 13.35 23.6 14.95 Q23.25 16.05 23.6 16.6 L23.6 16.75 23.85 17.9 24.15 18.65 24.15 18.9 24.1 19.7 23.9 20.65 23.65 21.5 23.45 22.05 23.05 23.0 22.5 24.5 22.25 25.8 21.85 27.35 21.45 28.7 21.05 29.5 20.45 30.2 19.4 31.05 19.2 31.05 19.2 31.5 19.4 33.0 19.85 34.3 19.85 34.75 17.95 36.35 16.15 37.3 14.8 37.7 14.1 37.8 Q11.85 37.7 9.6 36.3 L5.4 33.35 2.3 30.5 1.05 29.05 0.9 29.05 Q0.8 28.75 1.0 27.65 L1.55 24.35 2.0 22.2 1.75 20.55 1.2 17.8 Q0.85 16.4 0.65 14.85 L0.1 11.9 Q-0.1 10.4 0.2 8.9 0.5 7.4 1.05 6.1 1.6 4.8 2.35 3.8 L3.75 2.2 Q4.3 1.6 5.4 1.15 L7.75 0.4 10.35 0.05 12.75 0.15 14.7 0.65 16.65 1.5 18.15 2.45 18.9 3.1 19.4 3.6 20.35 4.5 31.8 4.5 35.95 6.2 31.8 8.4 M22.95 13.55 Q22.35 13.65 22.0 14.15 L22.55 14.45 23.3 14.85 23.6 14.0 23.85 13.35 22.95 13.55 M22.85 14.8 L22.9 14.95 22.95 15.1 Q22.95 15.5 22.5 15.5 L23.1 15.5 23.1 15.45 23.15 15.45 23.3 15.35 23.3 15.2 23.15 14.95 22.8 14.75 22.85 14.8 M22.0 14.15 L21.85 14.45 21.75 14.75 21.75 15.05 Q21.75 14.4 22.35 14.4 L22.1 14.35 22.0 14.25 22.0 14.15 M22.3 15.5 Q21.75 15.5 21.75 15.15 L21.75 15.5 22.3 15.5 M21.75 15.8 Q22.15 16.4 23.1 16.6 L23.1 15.65 22.4 15.8 21.75 15.65 21.75 15.8 M22.0 23.35 L21.85 22.9 21.3 22.8 20.8 22.8 20.2 22.9 19.55 22.8 18.1 22.8 Q17.75 22.9 16.95 23.4 16.1 23.95 15.95 24.2 L16.3 24.6 17.0 25.15 17.75 25.65 18.3 25.85 20.0 26.2 20.9 26.1 21.75 25.4 22.0 24.8 22.15 24.1 22.0 23.35 M21.6 24.2 L21.6 24.1 17.7 24.2 17.55 24.35 17.4 24.2 18.0 23.95 Q18.55 23.75 19.25 23.5 L20.65 23.4 Q21.35 23.5 21.75 24.1 L21.6 24.2 M11.5 3.1 L10.05 3.5 9.1 3.6 8.95 3.7 9.05 3.0 9.05 2.35 9.1 1.8 8.55 2.9 8.15 3.6 7.9 3.7 7.65 3.65 7.45 3.6 Q7.45 3.25 7.1 3.25 L6.8 3.0 6.7 2.75 Q6.55 3.05 6.55 3.3 L6.35 4.0 6.35 4.65 6.25 4.95 6.0 5.15 5.85 5.15 Q5.4 5.35 4.8 5.15 L3.85 4.65 3.95 5.0 Q4.1 5.15 4.35 5.15 L5.15 6.0 5.6 6.7 5.75 6.8 4.35 7.25 3.35 7.5 2.8 7.75 3.15 8.1 4.15 8.25 4.95 8.25 5.25 8.1 5.25 8.4 5.3 9.15 5.45 10.1 Q5.45 9.5 5.75 9.5 L5.8 9.5 6.0 9.65 6.35 10.55 6.7 11.75 6.7 12.15 7.05 11.65 7.45 11.35 Q8.0 10.95 8.2 11.2 L8.85 11.7 9.5 12.45 9.65 12.6 10.0 11.9 Q10.2 11.4 10.55 11.2 10.75 10.85 11.15 10.85 L11.65 11.0 12.45 11.2 Q12.75 10.8 12.45 10.25 12.05 9.7 12.45 9.5 12.6 9.3 13.2 9.25 L14.45 9.35 13.5 8.4 13.2 8.2 13.0 8.1 12.75 8.1 13.0 7.9 Q13.0 7.75 13.15 7.75 L13.8 7.1 Q14.15 6.8 14.45 6.7 L14.6 6.7 14.15 6.2 13.0 5.6 12.1 5.05 11.9 4.65 11.8 4.35 11.7 3.85 11.65 3.45 11.65 3.1 11.5 3.1 M15.25 14.95 Q14.45 15.1 13.65 14.15 L13.65 13.9 13.8 13.9 14.85 13.7 15.8 13.9 16.6 14.6 16.6 14.75 16.45 14.75 15.25 14.95 M16.3 14.6 L16.0 14.2 15.7 13.9 15.7 14.25 Q15.7 14.75 15.35 14.75 L16.3 14.6 M15.55 12.4 Q14.3 12.4 13.45 12.95 12.6 13.55 12.6 14.25 12.6 15.0 13.45 15.55 14.3 16.15 15.55 16.15 16.65 16.15 17.5 15.55 18.3 15.0 18.3 14.25 18.3 13.55 17.5 12.95 16.65 12.4 15.55 12.4 M14.75 14.75 Q14.6 14.6 14.6 14.25 L14.65 14.0 14.75 13.8 14.3 13.95 13.95 14.15 14.3 14.45 14.75 14.75" fill="#9d511b" fill-rule="evenodd" stroke="none"/>
    </g>
  </defs>
</svg>
