<svg xmlns="http://www.w3.org/2000/svg" xmlns:xlink="http://www.w3.org/1999/xlink" viewBox="0 0 133.52 52.035">
  <defs>
    <style>
      .cls-1 {
        fill: none;
      }

      .cls-2 {
        clip-path: url(#clip-path);
      }

      .cls-3 {
        fill: #ff4e4e;
      }

      .cls-3, .cls-4 {
        fill-rule: evenodd;
      }

      .cls-4 {
        fill: #fff;
      }
    </style>
    <clipPath id="clip-path">
      <path id="Path_13" data-name="Path 13" class="cls-1" d="M0-165.345H133.52v52.035H0Z" transform="translate(0 165.345)"/>
    </clipPath>
  </defs>
  <g id="Logo" transform="translate(-65.375 -23)">
    <g id="Group_12" data-name="Group 12" class="cls-2" transform="translate(65.375 23)">
      <g id="Group_7" data-name="Group 7" transform="translate(51.273 0)">
        <path id="Path_7" data-name="Path 7" class="cls-3" d="M-57.795-27.423c.311-.324.633-.625.912-.961.241-.289.409-.641.657-.922.3-.336.1-.646-.017-.939-.036-.095-.314-.132-.483-.135-.558-.01-.76.22-.674.753-.324.163-.651.335-.985.493-.25.118-.3.275-.152.51.232.365.455.736.741,1.2M-80.009,11.889a14.5,14.5,0,0,1-3.808,0c-.268-.049-.425-.161-.441-.416A5.63,5.63,0,0,1-84.29,9.96c.253-1.152.609-2.281.927-3.417.066-.235.143-.467.227-.7a.987.987,0,0,0-.108-.919,1.4,1.4,0,0,1-.038-1.29,8.357,8.357,0,0,1,.787-1.467,3.116,3.116,0,0,0,.335-1.26,4.272,4.272,0,0,1,.715-1.754A9.473,9.473,0,0,1-80.609-2.1a13.442,13.442,0,0,0,1.062-1.652,1.27,1.27,0,0,0,.227-.92,7.574,7.574,0,0,1,.132-2.691c.1-.677.223-1.353.388-2.017a1.772,1.772,0,0,0-.163-1.277,1.229,1.229,0,0,1,.042-1.467c.02-.022.019-.062.036-.124-.6-.225-.324-.684-.232-1.053a.741.741,0,0,1,.893-.572c.053-1.743-.674-3.394-.421-5.148l.378.228c-.218-.84.54-.639.9-.918-.552-.113-1.062-.237-1.579-.313-.254-.037-.343-.17-.331-.377.026-.438.079-.875.126-1.312.121-1.118.252-2.234.361-3.353.021-.221.084-.325.31-.345.584-.052,1.167-.123,1.751-.179.288-.028.351-.15.316-.447a10.279,10.279,0,0,1,.172-4.074,6.032,6.032,0,0,1,1.88-3.044,3.955,3.955,0,0,1,2.8-.986,3.975,3.975,0,0,1,.879.281c.11.034.259.082.342.036.146-.081.293-.189.188-.43a3.835,3.835,0,0,1-.078-2.913A4.167,4.167,0,0,1-67-39.915a4.555,4.555,0,0,1,3.283.571c.384.209.782.395,1.18.577.271.124.459.273.37.615a.375.375,0,0,0,.055.253,3.525,3.525,0,0,1,.427,2.312c-.089.7-.28.867-.976,1.022-.52.116-.522.117-.471.63.03.3.069.6.113.991.38-.051.743-.085,1.1-.15.465-.086.928-.189,1.388-.3a.357.357,0,0,0,.208-.2,8.8,8.8,0,0,1,.441-1.112l.166.906c.245.188.77-.039.8.538h12.291v.472l.419.048v-1.991l.383-.028c0,.357.016.683,0,1.007-.024.369.008.7.393.871l.349-.125a3.47,3.47,0,0,1,.125.463,1.578,1.578,0,0,1-.042.367c.311.015.613.043.914.043.735,0,1.47-.014,2.205-.024a.677.677,0,0,0,.236-.018c.809-.327,1.624.119,2.454-.1-.017.291-.029.5-.045.776-.472,0-.931-.009-1.388,0a2.577,2.577,0,0,1-.985-.106,2.87,2.87,0,0,0-.938-.069c-.656,0-1.31.012-1.966.025a1.673,1.673,0,0,0-.367.056,2.326,2.326,0,0,1-1.542-.056c-.041.039-.067.052-.07.069-.083.561-.083.561-.67.561-1.335,0-2.67.007-4.005,0a1.55,1.55,0,0,0-1.272.61,6.38,6.38,0,0,1-1.07.962c-.154.115-.228.209-.2.375.1.493.2.984.3,1.474.066.309.14.616.221.969-.209.056-.4.117-.59.158a.648.648,0,0,0-.538.567c-.088.466-.166.935-.273,1.4a1.679,1.679,0,0,1-.861,1.064,5.779,5.779,0,0,0-.759.56,2.123,2.123,0,0,1-1.339.551v.2c-.047-.01-.081-.008-.087-.02a.614.614,0,0,0-.549-.3,9.881,9.881,0,0,1-3-.99c-.59-.278-1.175-.565-1.791-.862l-.3,1.2.489.213A1.3,1.3,0,0,1-62-21.664a19.645,19.645,0,0,1-.146,1.972c-.043.552-.1,1.1-.109,1.657a3.078,3.078,0,0,1-.769,1.864.443.443,0,0,1-.323.143,2.883,2.883,0,0,1-.7-.1c-.5-.143-.8.136-.71.663a2.809,2.809,0,0,0,.779,1.743,12.754,12.754,0,0,1,2.144,2.657,15.236,15.236,0,0,1,.862,1.677c.434.934.841,1.88,1.265,2.818a.445.445,0,0,0,.182.224c.467.2.444.649.6,1.029.609,1.524.108,3.042.02,4.561a5.175,5.175,0,0,1-.179.851,4.687,4.687,0,0,0,.1,2.163,2.284,2.284,0,0,1-.235,1.254,2.661,2.661,0,0,0-.254,1.139c.027.644-.01,1.294.074,1.929a1.817,1.817,0,0,0,.463.854A11.055,11.055,0,0,0-57.69,8.7a4.072,4.072,0,0,0,.991.538c.462.206.945.362,1.408.566.324.143.268.47.272.744.008.5,0,.548-.484.553q-2.065.022-4.13-.037a4.09,4.09,0,0,1-1.046-.265,6.061,6.061,0,0,0-1.919-.06,4.961,4.961,0,0,1-1.117-.178c-.314-.071-.334-.288-.252-.573.138-.485.218-.986.359-1.47.1-.35.266-.681.4-1.023a.646.646,0,0,0,.064-.259c-.053-.829-.145-1.658-.159-2.486a.727.727,0,0,0-.31-.689c-.031-.02-.039-.078-.051-.12a26,26,0,0,1-.716-4.654,1.454,1.454,0,0,1,.364-1.091.953.953,0,0,0,.193-.42c.058-.345.079-.7.116-1.045a2.028,2.028,0,0,0-.579-1.04c-.057-.018-.13.021-.2.021a9.4,9.4,0,0,1-.975-.007c-.475-.046-.725-.431-.984-.76-.519-.661-1-1.35-1.51-2.021q-.5-.655-1.019-1.288a.341.341,0,0,0-.261-.107c-.85.114-1.271-.392-1.582-1.07-.033-.071-.072-.141-.11-.21a.2.2,0,0,0-.034-.04c-.087.074-.235.135-.256.225-.173.75-.831,1.147-1.228,1.731a.942.942,0,0,0-.1.179c-.371.913-.75,1.823-1.1,2.743a3.687,3.687,0,0,0-.1.669,1.214,1.214,0,0,1-.6.92,1.553,1.553,0,0,0-.622.709c-.206.515-.724.707-1,1.114A6.9,6.9,0,0,0-76.61-.23c-.048.115.067.295.1.446a1.277,1.277,0,0,1-.127.9c-.378.738-.712,1.5-1.049,2.256-.2.448-.351.917-.557,1.361-.2.427-.418.849-.941.976a.354.354,0,0,0-.205.153A9.161,9.161,0,0,0-79.962,7a4.941,4.941,0,0,0-.371,2.8,3.322,3.322,0,0,0,.213.593,2.3,2.3,0,0,1,.11,1.491" transform="translate(84.335 40.017)"/>
      </g>
      <g id="Group_8" data-name="Group 8" transform="translate(25.662 16.78)">
        <path id="Path_8" data-name="Path 8" class="cls-4" d="M-50.546-8.566H-68.638v3.2H-55.45a5.816,5.816,0,0,1,2.943.654,7.166,7.166,0,0,1,1.523,1.275A3.424,3.424,0,0,1-50.148-1.2a12.32,12.32,0,0,1,.1,1.574,15.762,15.762,0,0,1-.273,2.344,3.762,3.762,0,0,1-1.647,2.231,6.055,6.055,0,0,1-3.759,1.025c-4.216-.019-8.431,0-12.647,0a5.94,5.94,0,0,1-3.3-.867,4.218,4.218,0,0,1-1.649-1.842,2.528,2.528,0,0,1-.345-1.235h18.34V-1.381h-.536c-4.33,0-8.661.008-12.991,0a4.956,4.956,0,0,1-3.865-1.724,3.806,3.806,0,0,1-1.031-2.83c.044-.835-.037-1.676.025-2.509a4.186,4.186,0,0,1,2.177-3.3,5.542,5.542,0,0,1,3.08-.747c4.353.015,8.706.009,13.059,0a4.993,4.993,0,0,1,3.365,1.2,4.262,4.262,0,0,1,1.5,2.555,1.28,1.28,0,0,1,0,.177" transform="translate(73.758 12.499)"/>
      </g>
      <g id="Group_9" data-name="Group 9" transform="translate(83.782 16.77)">
        <path id="Path_9" data-name="Path 9" class="cls-4" d="M-51.9-7.842H-71.235V3.4H-56.5V-.613h-1.237c-2.051,0-4.1.023-6.15-.011a3.755,3.755,0,0,1-2.722-1.307,5.461,5.461,0,0,1-1.048-1.783H-51.9v.352c0,2.059-.014,4.119.006,6.178a3.657,3.657,0,0,1-.673,2.223,4.49,4.49,0,0,1-3.7,2c-5.029.035-10.059.012-15.088,0a4.423,4.423,0,0,1-2.569-.909,3.923,3.923,0,0,1-1.5-1.818,5.227,5.227,0,0,1-.3-1.728c-.025-3.2-.009-6.4,0-9.606a4.06,4.06,0,0,1,.775-2.443,4.516,4.516,0,0,1,2.643-1.741,7.788,7.788,0,0,1,1.763-.213c4.537-.017,9.074,0,13.61-.014a5.429,5.429,0,0,1,3.7,1.344,5.156,5.156,0,0,1,.925,1.234A6.431,6.431,0,0,1-51.9-7.842" transform="translate(75.735 11.443)"/>
      </g>
      <path id="Path_10" data-name="Path 10" class="cls-4" d="M355.753-96.939h13.739v-11.613H355.753Zm6.813,3.36q-3.418,0-6.837,0a4.535,4.535,0,0,1-3.135-1.225,3.774,3.774,0,0,1-1.293-2.12,10.794,10.794,0,0,1-.194-1.864c-.02-2.918-.013-5.837-.006-8.755a4.306,4.306,0,0,1,.642-2.25,4.645,4.645,0,0,1,3.087-2.1,6.94,6.94,0,0,1,1.461-.152c4.272-.011,8.544,0,12.816-.011a5.211,5.211,0,0,1,3.723,1.439,6.235,6.235,0,0,1,.9,1.254,3.369,3.369,0,0,1,.388,1.887c-.009,3.213-.019,6.425.005,9.638a3.688,3.688,0,0,1-.735,2.276,4.693,4.693,0,0,1-3.88,1.993c-2.314.014-4.627,0-6.941,0Z" transform="translate(-240.602 128.827)"/>
      <g id="Group_10" data-name="Group 10" transform="translate(0 16.779)">
        <path id="Path_11" data-name="Path 11" class="cls-4" d="M-50.259-8.832H-67.644V1.362h17.4c-.076.267-.135.481-.2.695A4.679,4.679,0,0,1-54.556,5.5a16.4,16.4,0,0,1-2.5.078c-3.631.007-7.263,0-10.894.006a5.773,5.773,0,0,1-3.995-1.408,3.387,3.387,0,0,1-.661-.767,4.2,4.2,0,0,1-.73-2.213c.014-3.3.008-6.608.016-9.911a3.787,3.787,0,0,1,.9-2.274,4.657,4.657,0,0,1,1.359-1.208,4.5,4.5,0,0,1,2.335-.685q6.873-.014,13.747,0a4.632,4.632,0,0,1,3.247,1.3,4.1,4.1,0,0,1,1.3,2.162c.039.178.109.35.182.582" transform="translate(73.339 12.888)"/>
      </g>
    </g>
  </g>
</svg>
